# xmcd
#
# Track frame offsets:
#	150
#	23197
#	42320
#	99500
#	113341
#	128910
#	163910
#	194334
#	213902
#	249110
#
# Disc length: 3861 seconds
#
# Revision: 0
# Processed by: cddbd v1.5.2PL0 Copyright (c) Steve Scherf et al.
# Submitted via: audiograbber 1.83.01
#
DISCID=7d0f130a
DTITLE=Grateful Dead - 93-09-20 Madison Square Garden, New York NY
DYEAR=1900
DGENRE=
TTITLE0=Touch Of Grey
TTITLE1=Greatest Story Ever Told
TTITLE2=Row Jimmy
TTITLE3=The Race Is On
TTITLE4=Dire Wolf
TTITLE5=Memphis Blues
TTITLE6=Lazy River Road
TTITLE7=Johnny B Goode
TTITLE8=Samson and Delilah
TTITLE9=So Many Roads
EXTD=
EXTT0=
EXTT1=
EXTT2=
EXTT3=
EXTT4=
EXTT5=
EXTT6=
EXTT7=
EXTT8=
EXTT9=
PLAYORDER=
